# xmcd
#
# Track frame offsets:
#	150
#	16197
#	40373
#	59806
#	72066
#	88987
#	99902
#	111338
#	122183
#	136387
#	153513
#	166787
#
# Disc length: 2395 seconds
#
# Revision: 0
# Processed by: cddbd v1.4PL0 Copyright (c) Steve Scherf et al.
# Submitted via: audiograbber 1.81.01
#
DISCID=a309590c
DTITLE=Renato Rascel - I Grandi Successi Originali cd1
DYEAR=1900
DGENRE=pop
TTITLE0=Arrivederci Roma
TTITLE1=Romantica
TTITLE2=E arrivata la bufera
TTITLE3=Ninna nanna del cavallino
TTITLE4=Dracula cha cha
TTITLE5=Bimba bimba mia
TTITLE6=Dimmelo con un fiore
TTITLE7='Na canzone pe' ffa amore
TTITLE8=Il ragazzo d'argilla
TTITLE9=Miracolo de Roma
TTITLE10=Venticello de Roma
TTITLE11=Vogliamoci tanto bene
EXTD=
EXTT0=
EXTT1=
EXTT2=
EXTT3=
EXTT4=
EXTT5=
EXTT6=
EXTT7=
EXTT8=
EXTT9=
EXTT10=
EXTT11=
PLAYORDER=
